<?xml version="1.0" standalone="no"?>
<!DOCTYPE svg PUBLIC "-//W3C//DTD SVG 20010904//EN" "http://www.w3.org/TR/2001/REC-SVG-20010904/DTD/svg10.dtd">
<svg xmlns="http://www.w3.org/2000/svg" width="550" height="900">
<h1>Muñeco de nieve</h1>
  	<rect x="270" y="125" width="10%" height="10%" fill="blue" />torreSombrero
        <ellipse rx="30" ry="5" cx="297" cy="125" style="fill:brown;stroke:black;stroke-width:3" />copaSombrero
     	<ellipse rx="50" ry="15" cx="300" cy="210" style="fill:brown;stroke:black;stroke-width:3" />baseSombrero
    	<rect x="250" y="480" width="3%" height="19%" fill="red"  ry="10" />piernaI
        <rect x="320" y="480" width="3%" height="19%" fill="red"  ry="10" />piernaD
        <rect x="380" y="340" width="19%" height="1%" fill="blue"  ry="10" />brazoD
        <rect x="120" y="340" width="19%" height="1%" fill="blue"  ry="10" />brazoI
    	<circle cx="300" cy="395" r="100" stroke-with="6" stroke="black" fill="white" /> Barriga
        
   		<circle cx="300" cy="250" r="40" stroke="black" stroke-width="3" fill="white" /> Cabeza
        
        <polygon points="230,280 300,250 297,260" style="fill:orange;stroke:purple;stroke-width:3" />picoNariz
        
        <circle cx="300" cy="255"  r="6" stroke="brown" stroke-width="3" fill="brown" />Nariz
        <circle cx="280" cy="235"  r="6" stroke="blue" stroke-width="3" fill="black" />OjoI
        <circle cx="320" cy="235"  r="6" stroke="blue" stroke-width="3" fill="black" />OjoD
   		<circle cx="300" cy="335"  r="8" stroke="black" stroke-width="3" fill="green" />Botonverde
        <circle cx="300" cy="385"  r="9" stroke="black" stroke-width="3" fill="yellow" />Botonamarillo
        <circle cx="300" cy="435"  r="10" stroke="black" stroke-width="3" fill="purple" />BotonPurpura
 </svg>
